PathFileType	4	(X/Y/Z)	./resultDataOpenSim/trcMotMarkerGrf/sub06/qtm-15-06.trc
DataRate	CameraRate	NumFrames	NumMarkers	Units	OrigDataRate	OrigDataStartFrame	OrigNumFrames
250.000000	250.000000	5	24	m	250.000000	68	536
Frame#	Time	L.Toe.Tip			R.Toe.Tip			L.Ankle.Lat			R.Ankle.Lat			L.Ankle.Med			R.Ankle.Med			L.Heel			R.Heel			L.Knee.Lat			R.Knee.Lat			L.Knee.Med			R.Knee.Med			L.Thigh.Upper			R.Thigh.Upper			L.ASIS			R.ASIS			V.Sacral			L.Acromium			R.Acromium			C7			L.Elbow			R.Elbow			L.Wrist.Lat			R.Wrist.Lat
		X1	Y1	Z1	X2	Y2	Z2	X3	Y3	Z3	X4	Y4	Z4	X5	Y5	Z5	X6	Y6	Z6	X7	Y7	Z7	X8	Y8	Z8	X9	Y9	Z9	X10	Y10	Z10	X11	Y11	Z11	X12	Y12	Z12	X13	Y13	Z13	X14	Y14	Z14	X15	Y15	Z15	X16	Y16	Z16	X17	Y17	Z17	X18	Y18	Z18	X19	Y19	Z19	X20	Y20	Z20	X21	Y21	Z21	X22	Y22	Z22	X23	Y23	Z23	X24	Y24	Z24

68	0.268	-1.2205757	0.079546799	-0.089774848	-0.75526685	0.037323374	0.06954165	-1.2341618	0.20814987	-0.11741216	-0.89223844	0.059627767	0.084578972	-1.2148968	0.21453043	-0.036803835	-0.86819516	0.083315664	0.00092499211	-1.2864084	0.26043055	-0.070391838	-0.94223798	0.037492254	0.018987632	-0.90610367	0.39234527	-0.14748479	-0.83742615	0.44473944	0.12756187	-0.90177833	0.38388529	-0.024584936	-0.86611609	0.43613284	0.0017065873	-0.96259094	0.78418164	-0.15449615	-0.94226409	0.80612386	0.18866226	-0.88629459	0.83603548	-0.11726615	-0.86005357	0.85695409	0.12668415	-1.0548697	0.92526156	0.023464402	-0.92852602	1.3339249	-0.16148373	-0.92292512	1.3036541	0.20166535	-1.0032265	1.3611259	0.022962111	-0.97155224	1.0158789	-0.2234119	-1.01836	1.0024289	0.25292952	-0.80684197	0.83134417	-0.21503778	-0.91176672	0.79206056	0.30286009
69	0.272	-1.2036846	0.079054653	-0.089230911	-0.75537709	0.037345646	0.069645501	-1.2199846	0.20722671	-0.11636015	-0.89236519	0.059577314	0.084708588	-1.2006822	0.21384885	-0.03587248	-0.86827425	0.083462233	0.0011297907	-1.2731504	0.25842514	-0.069266788	-0.94229998	0.037597662	0.019083069	-0.89411184	0.39474458	-0.14693973	-0.83652193	0.44470386	0.12775208	-0.88936656	0.38632018	-0.02393051	-0.86487406	0.43644871	0.0019220179	-0.95599952	0.78598788	-0.15459369	-0.93696955	0.80713415	0.18936919	-0.88027516	0.83795029	-0.11665204	-0.8552216	0.85825309	0.12770345	-1.0496808	0.92634466	0.024803088	-0.92303409	1.3356566	-0.16112623	-0.91700455	1.3055611	0.20186468	-0.99744108	1.3626554	0.023323024	-0.96692852	1.0179178	-0.22239786	-1.0105135	1.003703	0.25384532	-0.80365346	0.83236617	-0.21546302	-0.90131042	0.79459058	0.30340037
70	0.276	-1.1865828	0.07845242	-0.088723088	-0.75548652	0.037367628	0.069735496	-1.2056922	0.20610641	-0.11531671	-0.89247678	0.059555193	0.084843335	-1.1863926	0.2129646	-0.034908622	-0.86836042	0.083614773	0.0013228466	-1.2599162	0.25618212	-0.067946482	-0.94236632	0.037695143	0.019174058	-0.88221267	0.39721237	-0.1463678	-0.83549159	0.44469787	0.12798942	-0.8770464	0.3888497	-0.023285518	-0.863769	0.43677338	0.0021008046	-0.94933932	0.78775786	-0.15463934	-0.93217173	0.80813522	0.18991305	-0.87427419	0.8398481	-0.11603313	-0.84954891	0.85966509	0.12894297	-1.0447088	0.92759293	0.025750637	-0.91752278	1.3373667	-0.16076532	-0.91107124	1.3074601	0.20205147	-0.99166275	1.3641741	0.023680817	-0.96238667	1.0199772	-0.22149191	-1.0027163	1.0049913	0.2548065	-0.80060768	0.83339671	-0.21595276	-0.89081827	0.79718169	0.30389851
71	0.28	-1.1693221	0.07775713	-0.088211404	-0.75559821	0.037390304	0.069820107	-1.191298	0.20480532	-0.11429956	-0.89256565	0.059560569	0.084971328	-1.1720651	0.21191319	-0.03390224	-0.86845362	0.08377703	0.0015033443	-1.2467105	0.25372375	-0.0665229	-0.94243943	0.037771105	0.019257247	-0.87039825	0.39973762	-0.14576318	-0.83431516	0.44473208	0.12830777	-0.86488867	0.39145988	-0.022668885	-0.86253505	0.43711083	0.002331137	-0.94272249	0.78951752	-0.15445998	-0.92800239	0.80909181	0.19034736	-0.86826898	0.84172933	-0.11543154	-0.84342986	0.86111616	0.13030876	-1.039591	0.92899597	0.026193928	-0.91199718	1.3390549	-0.16040357	-0.9051072	1.3093492	0.20223865	-0.98589748	1.3656743	0.024038596	-0.9581088	1.022072	-0.22086811	-0.99500665	1.0062831	0.25580205	-0.79770419	0.83443315	-0.21650488	-0.88026598	0.79982283	0.30435451
72	0.284	-1.1519596	0.076964495	-0.087611136	-0.75571701	0.037415952	0.069908696	-1.176801	0.20332838	-0.11331684	-0.8926362	0.059577524	0.085082494	-1.1577829	0.2107046	-0.03285659	-0.86855624	0.083950113	0.0016768361	-1.2334408	0.25102109	-0.065214997	-0.94252224	0.037820432	0.01933231	-0.85865972	0.40231378	-0.14513406	-0.83308932	0.44479128	0.12866175	-0.85293225	0.39414374	-0.022091994	-0.86112782	0.4374535	0.0026416297	-0.93620638	0.79128391	-0.15406236	-0.92404351	0.81002369	0.19077936	-0.86223177	0.84360367	-0.1148406	-0.83765067	0.86250078	0.13157871	-1.0341992	0.93042614	0.026324189	-0.90646452	1.3407187	-0.1600485	-0.89906699	1.3112272	0.20242541	-0.98014482	1.3671349	0.024397168	-0.95409788	1.024186	-0.2205192	-0.98745901	1.0075693	0.25679776	-0.7948883	0.83547273	-0.21709798	-0.86968759	0.80250502	0.30476981
